<?xml version="1.0" standalone="no"?>
<!DOCTYPE svg PUBLIC "-//W3C//DTD SVG 20010904//EN"
 "http://www.w3.org/TR/2001/REC-SVG-20010904/DTD/svg10.dtd">
<svg version="1.0" xmlns="http://www.w3.org/2000/svg"
 width="270.000000pt" height="270.000000pt" viewBox="0 0 270.000000 270.000000"
 preserveAspectRatio="xMidYMid meet">
<metadata>
Created by potrace 1.16, written by Peter Selinger 2001-2019
</metadata>
<g transform="translate(0.000000,270.000000) scale(0.100000,-0.100000)"
fill="#000000" stroke="none">
<path d="M1235 2290 c-193 -31 -388 -131 -523 -269 -118 -121 -206 -276 -249
-440 -33 -124 -38 -321 -10 -448 69 -321 285 -581 579 -697 36 -14 72 -27 80
-27 7 -1 -43 -7 -112 -14 -188 -18 -213 -33 -95 -54 55 -11 111 -14 355 -25
111 -5 468 11 544 24 33 5 64 14 69 19 18 18 -95 38 -233 41 l-55 1 53 19
c354 126 589 431 632 821 59 534 -354 1029 -879 1054 -53 2 -123 0 -156 -5z
m241 -221 c330 -60 574 -358 574 -701 0 -185 -60 -345 -177 -469 -172 -182
-505 -329 -741 -329 -75 0 -179 22 -220 46 l-27 15 30 -6 30 -5 -25 16 c-18
11 -19 14 -5 9 96 -31 145 -37 250 -32 160 9 326 62 489 158 103 61 224 186
269 280 89 181 98 373 26 559 -137 356 -543 512 -887 340 -209 -105 -336 -309
-349 -560 -6 -130 12 -225 64 -330 102 -208 310 -305 547 -255 38 8 73 12 77
9 5 -3 9 -1 9 4 0 5 14 15 32 23 59 24 173 106 235 167 110 111 162 220 171
358 8 138 -29 249 -116 345 -198 221 -541 227 -741 13 -99 -105 -141 -223
-141 -394 0 -156 36 -264 112 -339 90 -89 181 -90 384 -6 168 70 271 154 322
263 23 49 27 70 27 147 0 77 -4 98 -27 147 -35 76 -107 151 -179 187 -32 16
-55 31 -52 35 3 3 11 2 17 -2 14 -8 66 -9 60 -1 -2 4 3 12 10 19 11 8 20 9 35
0 12 -6 21 -13 21 -16 0 -2 -9 0 -19 6 -26 13 -41 12 -18 -1 10 -6 29 -12 42
-14 37 -4 104 -63 147 -129 132 -205 72 -461 -150 -638 -195 -156 -405 -190
-585 -95 -142 74 -224 227 -234 432 -6 132 10 214 65 325 74 151 242 278 409
311 87 16 234 7 307 -19 147 -54 272 -164 336 -296 55 -114 64 -156 64 -286 1
-192 -52 -316 -188 -445 -85 -81 -190 -144 -315 -191 -289 -108 -511 -78 -673
94 -77 81 -134 177 -118 197 6 7 8 21 4 31 -3 11 9 -7 28 -39 120 -207 266
-302 463 -301 92 0 159 16 239 56 33 17 37 22 24 34 -12 12 -23 11 -83 -10
-186 -64 -346 -34 -476 91 -150 143 -223 380 -185 602 44 253 195 449 417 543
130 54 266 71 395 47z m-266 -318 c14 4 36 7 50 7 20 1 17 -2 -15 -15 -97 -39
-185 -132 -220 -233 -38 -108 -12 -252 65 -349 38 -47 149 -131 176 -131 7 0
15 -4 19 -10 10 -16 -131 -53 -181 -47 -81 9 -151 77 -182 177 -25 81 -24 296
2 370 28 82 78 154 142 204 55 43 59 44 88 32 18 -7 42 -9 56 -5z m200 -244
c34 -17 70 -74 70 -111 0 -73 -76 -135 -148 -121 -21 4 -50 21 -69 40 -27 27
-33 41 -33 77 0 48 25 94 62 114 29 17 86 17 118 1z m629 -553 c-98 -162 -300
-309 -547 -398 -75 -27 -111 -34 -79 -15 9 6 15 14 13 18 -3 4 36 24 87 45
221 90 392 222 492 379 14 21 20 25 31 16 11 -9 15 -7 20 5 4 9 9 15 12 12 2
-3 -10 -31 -29 -62z"/>
</g>
</svg>
